<svg width="24" height="24" viewBox="0 0 24 24" fill="none" xmlns="http://www.w3.org/2000/svg">
<path d="M12 12.8307C12.4602 12.8307 12.8333 12.4576 12.8333 11.9974C12.8333 11.5372 12.4602 11.1641 12 11.1641C11.5397 11.1641 11.1666 11.5372 11.1666 11.9974C11.1666 12.4576 11.5397 12.8307 12 12.8307Z" fill="#2D8CFF"/>
<path d="M17.8333 12.8307C18.2935 12.8307 18.6666 12.4576 18.6666 11.9974C18.6666 11.5372 18.2935 11.1641 17.8333 11.1641C17.3731 11.1641 17 11.5372 17 11.9974C17 12.4576 17.3731 12.8307 17.8333 12.8307Z" fill="#2D8CFF"/>
<path d="M6.16665 12.8307C6.62688 12.8307 6.99998 12.4576 6.99998 11.9974C6.99998 11.5372 6.62688 11.1641 6.16665 11.1641C5.70641 11.1641 5.33331 11.5372 5.33331 11.9974C5.33331 12.4576 5.70641 12.8307 6.16665 12.8307Z" fill="#2D8CFF"/>
<path d="M12 12.8307C12.4602 12.8307 12.8333 12.4576 12.8333 11.9974C12.8333 11.5372 12.4602 11.1641 12 11.1641C11.5397 11.1641 11.1666 11.5372 11.1666 11.9974C11.1666 12.4576 11.5397 12.8307 12 12.8307Z" stroke="#2D8CFF" stroke-width="1.3" stroke-linecap="round" stroke-linejoin="round"/>
<path d="M17.8333 12.8307C18.2935 12.8307 18.6666 12.4576 18.6666 11.9974C18.6666 11.5372 18.2935 11.1641 17.8333 11.1641C17.3731 11.1641 17 11.5372 17 11.9974C17 12.4576 17.3731 12.8307 17.8333 12.8307Z" stroke="#2D8CFF" stroke-width="1.3" stroke-linecap="round" stroke-linejoin="round"/>
<path d="M6.16665 12.8307C6.62688 12.8307 6.99998 12.4576 6.99998 11.9974C6.99998 11.5372 6.62688 11.1641 6.16665 11.1641C5.70641 11.1641 5.33331 11.5372 5.33331 11.9974C5.33331 12.4576 5.70641 12.8307 6.16665 12.8307Z" stroke="#2D8CFF" stroke-width="1.3" stroke-linecap="round" stroke-linejoin="round"/>
</svg>
