<svg width="24" height="24" viewBox="0 0 24 24" fill="none" xmlns="http://www.w3.org/2000/svg">
<path d="M16.0625 10.3333V8.66667C16.0625 6.36548 14.2437 4.5 12 4.5C9.75634 4.5 7.9375 6.36548 7.9375 8.66667V10.3333M12 14.0833V15.75M9.4 19.5H14.6C15.9651 19.5 16.6477 19.5 17.1691 19.2275C17.6277 18.9878 18.0006 18.6054 18.2343 18.135C18.5 17.6002 18.5 16.9001 18.5 15.5V14.3333C18.5 12.9332 18.5 12.2331 18.2343 11.6984C18.0006 11.228 17.6277 10.8455 17.1691 10.6058C16.6477 10.3333 15.9651 10.3333 14.6 10.3333H9.4C8.03487 10.3333 7.35231 10.3333 6.8309 10.6058C6.37225 10.8455 5.99936 11.228 5.76567 11.6984C5.5 12.2331 5.5 12.9332 5.5 14.3333V15.5C5.5 16.9001 5.5 17.6002 5.76567 18.135C5.99936 18.6054 6.37225 18.9878 6.8309 19.2275C7.35231 19.5 8.03487 19.5 9.4 19.5Z" stroke="#2D8CFF" stroke-width="1.3" stroke-linecap="round" stroke-linejoin="round"/>
</svg>
