<svg width="20" height="20" viewBox="0 0 20 20" fill="none" xmlns="http://www.w3.org/2000/svg">
<path d="M14.0625 8.33333V6.66667C14.0625 4.36548 12.2437 2.5 10 2.5C7.75634 2.5 5.9375 4.36548 5.9375 6.66667V8.33333M10 12.0833V13.75M7.4 17.5H12.6C13.9651 17.5 14.6477 17.5 15.1691 17.2275C15.6277 16.9878 16.0006 16.6054 16.2343 16.135C16.5 15.6002 16.5 14.9001 16.5 13.5V12.3333C16.5 10.9332 16.5 10.2331 16.2343 9.69836C16.0006 9.22795 15.6277 8.8455 15.1691 8.60582C14.6477 8.33333 13.9651 8.33333 12.6 8.33333H7.4C6.03487 8.33333 5.35231 8.33333 4.8309 8.60582C4.37225 8.8455 3.99936 9.22795 3.76567 9.69836C3.5 10.2331 3.5 10.9332 3.5 12.3333V13.5C3.5 14.9001 3.5 15.6002 3.76567 16.135C3.99936 16.6054 4.37225 16.9878 4.8309 17.2275C5.35231 17.5 6.03487 17.5 7.4 17.5Z" stroke="#2D8CFF" stroke-width="1.3" stroke-linecap="round" stroke-linejoin="round"/>
</svg>
