<svg width="15" height="15" viewBox="0 0 15 15" fill="none" xmlns="http://www.w3.org/2000/svg">
<g clip-path="url(#clip0_5513_95934)">
<path d="M1.38269 14.5312C0.609254 14.5312 0.257691 13.9687 0.609254 13.2891L6.86707 0.984375C7.21863 0.304688 7.78113 0.304688 8.13269 0.984375L14.3905 13.2891C14.7421 13.9687 14.3905 14.5312 13.6171 14.5312H1.38269Z" fill="#FFCE31"/>
<path d="M6.51624 5.53125L7.17249 9.86719C7.2428 10.2891 7.78186 10.2891 7.85217 9.86719L8.48499 5.53125C8.60217 3.84375 6.39905 3.84375 6.51624 5.53125" fill="#231F20"/>
<path d="M7.5 12.6094C8.04366 12.6094 8.48438 12.1687 8.48438 11.625C8.48438 11.0813 8.04366 10.6406 7.5 10.6406C6.95634 10.6406 6.51562 11.0813 6.51562 11.625C6.51562 12.1687 6.95634 12.6094 7.5 12.6094Z" fill="#231F20"/>
</g>
<defs>
<clipPath id="clip0_5513_95934">
<rect width="15" height="15" fill="white"/>
</clipPath>
</defs>
</svg>
