<svg width="52" height="52" viewBox="0 0 52 52" fill="none" xmlns="http://www.w3.org/2000/svg">
<path d="M10.4004 16.2703C10.4004 15.4306 10.999 14.7499 11.7375 14.7499L16.3555 14.7491C17.2731 14.7226 18.0826 14.0592 18.3948 13.0778C18.403 13.052 18.4124 13.0201 18.4463 12.9047L18.6453 12.2257C18.767 11.8095 18.8731 11.4468 19.0216 11.1227C19.608 9.84206 20.6931 8.95279 21.9469 8.72511C22.2643 8.66748 22.6004 8.66773 22.9862 8.66801H29.0149C29.4007 8.66773 29.7368 8.66748 30.0541 8.72511C31.308 8.95279 32.3931 9.84206 32.9795 11.1227C33.128 11.4468 33.2341 11.8095 33.3558 12.2257L33.5548 12.9047C33.5887 13.0201 33.5981 13.052 33.6063 13.0778C33.9185 14.0592 34.8886 14.7234 35.8061 14.7499H40.2632C41.0017 14.7499 41.6004 15.4306 41.6004 16.2703C41.6004 17.11 41.0017 17.7908 40.2632 17.7908H11.7375C10.999 17.7908 10.4004 17.11 10.4004 16.2703Z" fill="white"/>
<path fill-rule="evenodd" clip-rule="evenodd" d="M25.2994 43.3346H26.7013C31.5247 43.3346 33.9364 43.3346 35.5044 41.799C37.0725 40.2634 37.2329 37.7445 37.5538 32.7067L38.0161 25.4477C38.1902 22.7142 38.2772 21.3475 37.4906 20.4814C36.7039 19.6153 35.3755 19.6153 32.7187 19.6153H19.2821C16.6253 19.6153 15.2968 19.6153 14.5102 20.4814C13.7236 21.3475 13.8106 22.7142 13.9847 25.4477L14.447 32.7067C14.7679 37.7445 14.9283 40.2634 16.4963 41.799C18.0644 43.3346 20.4761 43.3346 25.2994 43.3346ZM31.6273 26.6003C31.6987 25.8483 31.1775 25.1777 30.4631 25.1025C29.7487 25.0273 29.1116 25.576 29.0402 26.328L28.1735 35.4508C28.1021 36.2028 28.6233 36.8734 29.3377 36.9486C30.0521 37.0238 30.6892 36.4751 30.7606 35.7231L31.6273 26.6003ZM21.5377 25.1025C22.2521 25.0273 22.8892 25.576 22.9606 26.328L23.8273 35.4508C23.8987 36.2028 23.3775 36.8734 22.6631 36.9486C21.9487 37.0238 21.3116 36.4751 21.2402 35.7231L20.3735 26.6003C20.3021 25.8483 20.8233 25.1777 21.5377 25.1025Z" fill="white"/>
</svg>
