<svg width="52" height="52" viewBox="0 0 52 52" fill="none" xmlns="http://www.w3.org/2000/svg">
<path fill-rule="evenodd" clip-rule="evenodd" d="M25.2991 43.3326H26.701C31.5244 43.3326 33.936 43.3326 35.5041 41.797C37.0721 40.2614 37.2326 37.7425 37.5534 32.7046L38.0157 25.4456C38.1898 22.7122 38.2768 21.3454 37.4902 20.4794C36.7036 19.6133 35.3752 19.6133 32.7184 19.6133H19.2817C16.6249 19.6133 15.2965 19.6133 14.5099 20.4794C13.7232 21.3454 13.8103 22.7122 13.9843 25.4456L14.4467 32.7046C14.7675 37.7425 14.9279 40.2614 16.496 41.797C18.064 43.3326 20.4757 43.3326 25.2991 43.3326ZM31.6269 26.5983C31.6984 25.8463 31.1771 25.1757 30.4627 25.1005C29.7483 25.0253 29.1113 25.5739 29.0398 26.3259L28.1731 35.4487C28.1017 36.2008 28.6229 36.8713 29.3373 36.9465C30.0518 37.0217 30.6888 36.4731 30.7602 35.7211L31.6269 26.5983ZM21.5373 25.1005C22.2517 25.0253 22.8888 25.5739 22.9602 26.3259L23.8269 35.4487C23.8984 36.2008 23.3771 36.8713 22.6627 36.9465C21.9483 37.0217 21.3113 36.4731 21.2398 35.7211L20.3732 26.5983C20.3017 25.8463 20.8229 25.1757 21.5373 25.1005Z" fill="white"/>
<path d="M10.4826 16.6336C10.2723 15.8207 10.6815 15.0117 11.3964 14.8268L15.8672 13.6698C16.7489 13.4144 17.3664 12.5695 17.423 11.5411C17.4244 11.5141 17.4256 11.4809 17.4295 11.3606L17.4521 10.6535C17.4658 10.22 17.4777 9.84238 17.5403 9.49138C17.7874 8.10472 18.6152 6.97211 19.7722 6.43774C20.065 6.30248 20.3905 6.21856 20.7641 6.12223L26.6007 4.61279C26.9741 4.51592 27.2994 4.43153 27.6211 4.40786C28.8921 4.31433 30.1652 4.9036 31.0536 5.99659C31.2785 6.27325 31.472 6.59778 31.6941 6.9703L32.0568 7.57777C32.1185 7.6811 32.1356 7.70955 32.15 7.73248C32.698 8.60448 33.8034 9.00467 34.6984 8.80053L39.0135 7.68455C39.7285 7.49965 40.4785 8.0088 40.6888 8.82178C40.899 9.63476 40.4899 10.4437 39.7749 10.6286L12.1578 17.7709C11.4429 17.9558 10.6928 17.4466 10.4826 16.6336Z" fill="white"/>
</svg>
