<svg width="24" height="24" viewBox="0 0 24 24" fill="none" xmlns="http://www.w3.org/2000/svg">
<path d="M11.6536 7.32191L15.6239 10.7959L15.6239 10.7959C16.099 11.2116 16.3366 11.4195 16.4239 11.6658C16.5006 11.882 16.5006 12.118 16.4239 12.3342C16.3366 12.5805 16.099 12.7884 15.6239 13.2041L11.6536 16.6781C10.8108 17.4156 10.3894 17.7843 10.0319 17.7957C9.72136 17.8056 9.42382 17.6706 9.22678 17.4304C9 17.1538 9 16.5939 9 15.474L9 8.52603C9 7.40611 9 6.84615 9.22678 6.56963C9.42382 6.32937 9.72136 6.19436 10.0319 6.20428C10.3894 6.2157 10.8108 6.58443 11.6536 7.3219L11.6536 7.32191Z" fill="#2D8CFF"/>
</svg>
