<svg width="24" height="24" viewBox="0 0 24 24" fill="none" xmlns="http://www.w3.org/2000/svg">
<path d="M16.6781 10.6536L13.2041 14.6239L13.2041 14.6239C12.7884 15.099 12.5805 15.3366 12.3342 15.4239C12.118 15.5006 11.882 15.5006 11.6658 15.4239C11.4195 15.3366 11.2116 15.099 10.7959 14.6239L7.32191 10.6536C6.58443 9.81078 6.2157 9.38937 6.20428 9.03194C6.19435 8.72136 6.32937 8.42382 6.56963 8.22678C6.84615 8 7.40611 8 8.52603 8L15.474 8C16.5939 8 17.1538 8 17.4304 8.22678C17.6706 8.42382 17.8056 8.72136 17.7957 9.03194C17.7843 9.38937 17.4156 9.81078 16.6781 10.6536L16.6781 10.6536Z" fill="#2D8CFF"/>
</svg>
