<svg width="24" height="24" viewBox="0 0 24 24" fill="none" xmlns="http://www.w3.org/2000/svg">
<path d="M14.2075 13.8951V15.6193M11.4905 19.4988H16.9245C18.351 19.4988 19.0643 19.4988 19.6092 19.2169C20.0885 18.9689 20.4781 18.5733 20.7223 18.0866C21 17.5334 21 16.8091 21 15.3607V14.1537C21 12.7053 21 11.981 20.7223 11.4278C20.4781 10.9411 20.0885 10.5455 19.6092 10.2975C19.0643 10.0156 18.351 10.0156 16.9245 10.0156H11.4905C10.064 10.0156 9.35069 10.0156 8.80582 10.2975C8.32654 10.5455 7.93687 10.9411 7.69266 11.4278C7.41504 11.981 7.41504 12.7053 7.41504 14.1537V15.3607C7.41504 16.8091 7.41504 17.5334 7.69266 18.0866C7.93687 18.5733 8.32654 18.9689 8.80582 19.2169C9.35069 19.4988 10.064 19.4988 11.4905 19.4988Z" stroke="#2D8CFF" stroke-width="1.3" stroke-linecap="round" stroke-linejoin="round"/>
<path d="M3.00018 7.08631C3.65528 5.56392 5.15139 4.5 6.89222 4.5C9.23683 4.5 11.1375 6.42989 11.1375 8.81052V9.67263" stroke="#2D8CFF" stroke-width="1.3" stroke-linecap="round" stroke-linejoin="round"/>
</svg>
