<svg width="20" height="20" viewBox="0 0 20 20" fill="none" xmlns="http://www.w3.org/2000/svg">
<path d="M12.2075 11.8951V13.6193M9.49052 17.4988H14.9245C16.351 17.4988 17.0643 17.4988 17.6092 17.2169C18.0885 16.9689 18.4781 16.5733 18.7223 16.0866C19 15.5334 19 14.8091 19 13.3607V12.1537C19 10.7053 19 9.98102 18.7223 9.42778C18.4781 8.94113 18.0885 8.54548 17.6092 8.29752C17.0643 8.01563 16.351 8.01562 14.9245 8.01562H9.49052C8.06397 8.01562 7.35069 8.01563 6.80582 8.29752C6.32654 8.54548 5.93687 8.94113 5.69266 9.42778C5.41504 9.98102 5.41504 10.7053 5.41504 12.1537V13.3607C5.41504 14.8091 5.41504 15.5334 5.69266 16.0866C5.93687 16.5733 6.32654 16.9689 6.80582 17.2169C7.35069 17.4988 8.06397 17.4988 9.49052 17.4988Z" stroke="#2D8CFF" stroke-width="1.3" stroke-linecap="round" stroke-linejoin="round"/>
<path d="M1.00036 5.08631C1.65546 3.56392 3.15157 2.5 4.89241 2.5C7.23701 2.5 9.1377 4.42989 9.1377 6.81052V7.67263" stroke="#2D8CFF" stroke-width="1.3" stroke-linecap="round" stroke-linejoin="round"/>
</svg>
